<svg height="506pt" viewBox="-132 0 506 506" width="506pt" xmlns="http://www.w3.org/2000/svg"><path d="m207.082031 160.167969c-11.894531-23.304688-18.089843-49.101563-18.082031-75.269531v-21.644532c7-2.5 13-9.632812 13-18.039062v-25.894532c-.171875-10.628906-8.769531-19.191406-19.398438-19.320312h-123.203124c-10.628907.128906-19.226563 8.691406-19.398438 19.320312v25.898438c0 8.402344 6 15.539062 13 18.039062v21.640626c.007812 26.167968-6.1875 51.960937-18.082031 75.265624l-15.074219 30.238282c-13.042969 25.539062-19.83984375 53.804687-19.84375 82.480468v182.324219c0 27.832031 27.492188 50.792969 61.460938 50.792969h119.078124c33.96875 0 61.460938-22.960938 61.460938-50.792969v-182.324219c-.003906-28.671874-6.804688-56.9375-19.84375-82.476562zm-151.082031-140.847657c.160156-1.792968 1.601562-3.203124 3.398438-3.320312h123.203124c1.796876.117188 3.238282 1.527344 3.398438 3.320312v25.898438c0 1.65625-1.742188 2.785156-3.398438 2.785156h-123.203124c-1.652344 0-3.398438-1.128906-3.398438-2.785156zm-21.832031 178.300782 15.03125-30.242188c13.027343-25.539062 19.8125-53.808594 19.800781-82.480468v-20.898438h104v20.898438c-.011719 28.671874 6.773438 56.9375 19.800781 82.476562l15.148438 30.238281c9.609375 18.828125 15.566406 39.304688 17.5625 60.347657-10.9375 1.730468-17.589844 6.320312-23.625 10.484374-6.789063 4.683594-12.367188 8.378907-24.074219 8.378907-11.710938 0-17.085938-3.699219-23.875-8.378907-7.617188-5.253906-16.265625-11.207031-32.960938-11.207031-16.691406 0-25.351562 5.953125-32.96875 11.207031-6.785156 4.683594-12.199218 8.378907-23.90625 8.378907-11.710937 0-17.171874-3.699219-23.957031-8.378907-6.035156-4.160156-12.65625-8.75-23.589843-10.484374 2.011718-21.046876 7.988281-41.519532 17.613281-60.34375zm146.371093 292.378906h-119.078124c-25.144532 0-45.460938-15.785156-45.460938-34.792969v-181.105469c6 1.351563 10.289062 4.179688 15.128906 7.519532 7.617188 5.25 16.410156 11.207031 33.097656 11.207031s25.308594-5.957031 32.925782-11.207031c6.789062-4.683594 12.140625-8.378906 23.847656-8.378906 11.710938 0 17.070312 3.699218 23.855469 8.378906 7.621093 5.253906 16.25 11.207031 32.941406 11.207031s25.453125-5.957031 33.070313-11.207031c4.839843-3.339844 9.128906-6.167969 15.128906-7.519532v181.105469c.003906 19.007813-20.3125 34.792969-45.457032 34.792969zm0 0"/></svg>